<?xml version="1.0" encoding="UTF-8"?>
<svg version="1.1" xmlns="http://www.w3.org/2000/svg" width="697" height="680">
<path d="M0 0 C4.93352156 1.99593612 9.50449539 4.50987053 14.125 7.125 C15.45628431 7.85868275 16.78841033 8.5908401 18.12133789 9.3215332 C28.27719055 14.91728687 38.3067562 20.73922098 48.28515625 26.64453125 C52.99557976 29.42683316 57.74973297 32.12029479 62.52709961 34.78564453 C76.27017518 42.45537638 89.6723533 50.63198904 103 59 C104.04978027 59.6590332 105.09956055 60.31806641 106.18115234 60.99707031 C127.26205171 74.27374672 147.88659784 88.21964349 168.16357422 102.69287109 C169.90740429 103.93409234 171.65751421 105.16579617 173.41015625 106.39453125 C183.27981519 113.33877827 192.84296586 120.67877969 202.41650391 128.0234375 C204.82734204 129.8679041 207.24564585 131.7019051 209.66796875 133.53125 C217.33029075 139.32774132 224.80699557 145.26125742 232.09375 151.5234375 C234.66947123 153.71833973 237.28110729 155.84170965 239.9375 157.9375 C244.65090792 161.67149848 249.20290777 165.57612427 253.75317383 169.50537109 C257.32921755 172.58748076 260.94737417 175.60129479 264.625 178.5625 C269.68096363 182.66535119 274.45857828 187.02070875 279.23046875 191.4453125 C281.45918393 193.50113722 283.70767919 195.51616957 286 197.5 C290.37650643 201.29297224 294.62169764 205.22656847 298.875 209.15625 C301.18657733 211.27795852 303.53796909 213.34807377 305.90625 215.40625 C309.85602764 218.85012633 313.68995901 222.40284026 317.5 226 C318.88667407 227.30473499 320.27339429 228.60942093 321.66015625 229.9140625 C322.72194092 230.91421387 322.72194092 230.91421387 323.80517578 231.93457031 C327.51004075 235.42101721 331.22439822 238.8973304 334.9375 242.375 C336.28012819 243.63262007 337.62259177 244.89041591 338.96484375 246.1484375 C339.5280835 246.67614746 340.09132324 247.20385742 340.67163086 247.74755859 C342.99238667 249.93566322 342.99238667 249.93566322 343.24926758 252.10644531 C343.57808916 263.91298315 340.98814524 275.22724568 338.6875 286.75 C338.23353489 289.06174643 337.77967939 291.37351439 337.32592773 293.68530273 C324.50362617 358.52150921 308.27718561 422.4701117 286.70129395 484.96643066 C286.02029259 486.9411568 285.34315444 488.91716712 284.66699219 490.89355469 C272.43446693 526.58022529 258.34653984 561.54619905 243 596 C242.67988953 596.71929688 242.35977905 597.43859375 242.02996826 598.1796875 C234.99308622 613.97580587 227.75640499 629.67132333 220.25 645.25 C219.95309265 645.86713867 219.6561853 646.48427734 219.35028076 647.12011719 C215.764402 654.55935402 215.764402 654.55935402 214 658 C213.58669434 658.90838623 213.17338867 659.81677246 212.74755859 660.75268555 C210.24630371 663.96923363 208.19476681 664.01001654 204.2109375 664.62890625 C203.16261246 664.79840538 203.16261246 664.79840538 202.09310913 664.97132874 C199.73200976 665.34210065 197.36773411 665.67440291 195 666 C194.16585571 666.11849304 193.33171143 666.23698608 192.47229004 666.35906982 C185.86521087 667.29021798 179.24757716 668.12493694 172.625 668.9375 C171.05782227 669.13117661 171.05782227 669.13117661 169.45898438 669.32876587 C139.71758632 672.99099075 109.96959751 675.80365129 80.0625 677.6875 C79.09981201 677.74843842 78.13712402 677.80937683 77.14526367 677.87216187 C50.37279981 679.54299769 23.63184584 680.20906922 -3.1875 680.1875 C-4.3103647 680.18709969 -4.3103647 680.18709969 -5.45591354 680.18669128 C-32.67622445 680.17456967 -59.82498166 679.69032559 -87 678 C-88.01656677 677.93683594 -89.03313354 677.87367188 -90.08050537 677.80859375 C-122.93795256 675.73406897 -155.61731041 672.43062946 -188.28173828 668.33850098 C-190.82648276 668.02160784 -193.37196618 667.71187172 -195.91796875 667.40527344 C-199.94858848 666.9186025 -203.97448134 666.40222842 -208 665.875 C-209.65418945 665.67390625 -209.65418945 665.67390625 -211.34179688 665.46875 C-212.32212891 665.33210937 -213.30246094 665.19546875 -214.3125 665.0546875 C-215.13363281 664.94624512 -215.95476562 664.83780273 -216.80078125 664.72607422 C-220.94004784 663.35949131 -222.66189852 660.59444353 -224.76074219 656.90429688 C-225.36491347 655.68008194 -225.9597478 654.45122993 -226.546875 653.21875 C-226.87493637 652.54588959 -227.20299774 651.87302917 -227.54100037 651.17977905 C-228.62017207 648.95763974 -229.68578021 646.7293348 -230.75 644.5 C-231.12138092 643.7283551 -231.49276184 642.95671021 -231.87539673 642.16168213 C-239.97802774 625.32515281 -247.62559525 608.29389159 -255.06439209 591.15509033 C-255.97418875 589.05945395 -256.88658587 586.96496536 -257.79931641 584.87060547 C-273.04314878 549.83210113 -286.76697089 514.19807271 -299 478 C-299.26727905 477.21147644 -299.53455811 476.42295288 -299.80993652 475.61053467 C-308.82124068 448.9982076 -316.79727617 422.15668123 -324 395 C-324.21958374 394.17258301 -324.43916748 393.34516602 -324.66540527 392.49267578 C-334.65288057 354.73345464 -342.61614681 316.49442548 -350.1875 278.1875 C-350.38417267 277.19965515 -350.58084534 276.2118103 -350.78347778 275.19403076 C-351.33477524 272.41572987 -351.87787781 269.63596719 -352.41796875 266.85546875 C-352.57987701 266.04225662 -352.74178528 265.22904449 -352.90859985 264.39118958 C-354.95876941 253.68459837 -354.95876941 253.68459837 -352.890625 250.05078125 C-348.30627488 245.19355314 -343.46803531 240.65820723 -338.5078125 236.1875 C-334.44780067 232.51918198 -330.47649632 228.75835204 -326.5 225 C-317.80465886 216.79668415 -309.08636073 208.62628646 -300.046875 200.80078125 C-297.55925274 198.61224335 -295.12646548 196.36760809 -292.6875 194.125 C-288.1482504 189.98074035 -283.46541704 186.07421602 -278.68359375 182.21484375 C-276.05291443 180.04367173 -273.52057576 177.79758643 -271 175.5 C-266.75348314 171.63466655 -262.3698689 167.98601754 -257.90625 164.375 C-255.34651891 162.28317675 -252.82308724 160.15833632 -250.31005859 158.01123047 C-243.59198463 152.27165419 -236.71161671 146.77452706 -229.73535156 141.35302734 C-228.06531597 140.05092587 -226.402384 138.74039606 -224.7421875 137.42578125 C-210.47221782 126.12978557 -196.15890691 114.87476798 -181.00708008 104.77587891 C-176.89090633 102.02356321 -172.86655009 99.17788189 -168.89175415 96.22653198 C-160.05641476 89.66826077 -150.96774162 83.5676819 -141.75 77.5625 C-140.18377061 76.53883991 -138.6176092 75.51507581 -137.05151367 74.49121094 C-132.70592998 71.65320587 -128.35387907 68.82525592 -124 66 C-123.02949707 65.36884277 -122.05899414 64.73768555 -121.05908203 64.08740234 C-106.59363633 54.70825963 -91.70025586 46.01615342 -76.84814453 37.26855469 C-73.42422614 35.25166651 -70.00665059 33.22422814 -66.58984375 31.1953125 C-52.64137941 22.94666552 -38.46471035 15.18593654 -24.10693359 7.67578125 C-22.07137592 6.57786613 -20.06158457 5.43044423 -18.08447266 4.23046875 C-11.98430151 0.57528815 -7.12809798 -1.70448945 0 0 Z M-10.41796875 20.16796875 C-11.33054443 20.64218262 -12.24312012 21.11639648 -13.18334961 21.60498047 C-14.17471924 22.12721191 -15.16608887 22.64944336 -16.1875 23.1875 C-17.21689697 23.72777832 -18.24629395 24.26805664 -19.30688477 24.82470703 C-30.33757687 30.65100731 -41.19227116 36.77178667 -52 43 C-52.9811377 43.56477051 -53.96227539 44.12954102 -54.97314453 44.71142578 C-75.63106519 56.62596475 -96.10789883 68.84017889 -116 82 C-116.85618927 82.56584808 -116.85618927 82.56584808 -117.72967529 83.14312744 C-134.97386445 94.54184761 -152.1761179 105.98561895 -169 118 C-169.73605469 118.52287598 -170.47210938 119.04575195 -171.23046875 119.58447266 C-183.69777471 128.44811797 -195.88011839 137.66861988 -208 147 C-208.79470703 147.61020996 -209.58941406 148.22041992 -210.40820312 148.84912109 C-220.83032469 156.85822837 -231.05305915 165.07779351 -241.16210938 173.47802734 C-243.65686306 175.54395381 -246.17224507 177.58411333 -248.6875 179.625 C-254.61133715 184.46608142 -260.40274146 189.45740676 -266.19726562 194.45166016 C-267.97485913 195.97840691 -269.75952015 197.49641708 -271.546875 199.01171875 C-277.95463465 204.45258769 -284.25081731 209.98176213 -290.38696289 215.72851562 C-293.17622377 218.33789839 -296.00359666 220.88887308 -298.88671875 223.39453125 C-302.98838596 226.96665195 -306.97568171 230.64895822 -310.9375 234.375 C-311.98454102 235.35726562 -311.98454102 235.35726562 -313.05273438 236.359375 C-317.39458292 240.44677102 -321.6673061 244.58686838 -325.8125 248.875 C-328 251 -328 251 -330.13061523 252.1081543 C-332.98561873 253.84815378 -334.36474026 255.05478877 -336 258 C-336.54695097 264.61113222 -334.47853693 271.4095504 -333.0625 277.8125 C-332.65818963 279.79026779 -332.25761139 281.76880186 -331.8605957 283.74804688 C-330.8248156 288.8553625 -329.73535189 293.94969085 -328.63317871 299.04302979 C-327.84495386 302.72407175 -327.09336671 306.41189989 -326.34634399 310.10148621 C-308.42428165 398.60707024 -281.36239199 485.7312078 -240 582 C-239.49436523 583.15258301 -238.98873047 584.30516602 -238.46777344 585.49267578 C-231.58576308 601.16455937 -224.37718754 616.64317258 -216.84838867 632.01293945 C-216.53956757 632.64432327 -216.23074646 633.27570709 -215.91256714 633.92622375 C-215.07628716 635.63409191 -214.23710139 637.34053633 -213.39770508 639.046875 C-212 642 -212 642 -211.4362793 644.765625 C-210.22706132 647.1480877 -210.22706132 647.1480877 -208.01043701 647.7048645 C-205.34635031 648.26155536 -202.69968663 648.65638146 -200 649 C-199.1773465 649.12034607 -198.35469299 649.24069214 -197.5071106 649.36468506 C-194.94657651 649.72893609 -192.38351672 650.05274503 -189.81640625 650.3671875 C-188.38285042 650.54650566 -188.38285042 650.54650566 -186.92033386 650.72944641 C-183.80171289 651.11688305 -180.68228674 651.49706993 -177.5625 651.875 C-176.47900269 652.0066153 -175.39550537 652.13823059 -174.2791748 652.27383423 C-153.13136512 654.83051377 -131.97930298 657.09917975 -110.74328613 658.77996826 C-108.02960673 658.99762532 -105.31707999 659.22669623 -102.60449219 659.45751953 C-37.06032785 664.92453596 30.7694332 664.80169779 96.300354 659.22784424 C99.03730704 658.99685137 101.77501069 658.77802885 104.51318359 658.56201172 C125.75943448 656.87091079 146.91292535 654.5014887 168.0625 651.875 C169.09645905 651.74684906 170.13041809 651.61869812 171.19570923 651.48666382 C174.14288534 651.11875005 177.08916621 650.74447065 180.03515625 650.3671875 C180.89683411 650.25896164 181.75851196 650.15073578 182.64630127 650.03923035 C185.1021119 649.71940294 187.55026542 649.36318322 190 649 C190.89655304 648.88824936 191.79310608 648.77649872 192.71682739 648.66136169 C198.08893065 647.9094899 198.08893065 647.9094899 202.19824219 644.6027832 C202.64329102 643.59562256 203.08833984 642.58846191 203.546875 641.55078125 C204.07394043 640.40939697 204.60100586 639.2680127 205.14404297 638.09204102 C205.68010136 636.83250843 206.21539765 635.57265128 206.75 634.3125 C207.3405403 632.99709729 207.93452683 631.68323698 208.53173828 630.37084961 C209.77300441 627.62753099 210.99203925 624.87584842 212.19433594 622.11523438 C213.89264834 618.22392447 215.65814671 614.36677301 217.4453125 610.515625 C253.99655938 531.4725105 282.56073549 449.1278651 317.41500854 304.90197754 C318.48301198 299.52799294 319.59767808 294.16638211 320.74795532 288.80941772 C321.4955048 285.29669132 322.21278471 281.77825025 322.92272949 278.25775146 C323.2621189 276.60438501 323.613347 274.95339838 323.97717285 273.30523682 C326.16775947 264.87220293 326.16775947 264.87220293 324.98168945 256.56152344 C323.45012769 254.71513657 321.94320481 253.39625525 320 252 C319.21238281 251.25234375 318.42476562 250.5046875 317.61328125 249.734375 C316.47439453 248.75210938 316.47439453 248.75210938 315.3125 247.75 C311.52988386 244.41674728 307.91183915 240.96581796 304.375 237.375 C300.79283545 233.75786314 297.16280643 230.31113786 293.29296875 227.0078125 C290.13162577 224.2396178 287.07088009 221.36779342 284 218.5 C279.07392659 213.90898979 274.11722843 209.37827848 269 205 C267.96605322 204.11208701 266.93220867 203.22405495 265.8984375 202.3359375 C263.50849346 200.28413254 261.11628517 198.23500465 258.72265625 196.1875 C256.26836295 194.08768 253.8179562 191.98347363 251.37109375 189.875 C244.32960757 183.81139107 237.218372 177.85299211 230 172 C228.78601933 171.00444133 227.57250776 170.00831046 226.359375 169.01171875 C217.489844 161.74066967 208.47260395 154.69586909 199.33056641 147.77148438 C196.83190465 145.87222922 194.34305211 143.96061442 191.85546875 142.046875 C182.48325582 134.84745587 173.04988756 127.78444065 163.34814453 121.03491211 C160.60801815 119.12671129 157.87669524 117.20734412 155.15673828 115.27050781 C145.25190319 108.22017332 135.22234827 101.37731861 125.09863281 94.64550781 C122.63115059 93.00409149 120.16700051 91.35776136 117.703125 89.7109375 C102.66995082 79.68400219 87.45436013 69.95069684 71.9375 60.6875 C70.89859619 60.06633301 69.85969238 59.44516602 68.78930664 58.80517578 C49.93546826 47.56775124 30.89818877 36.71697099 11.54345703 26.36572266 C9.250211 25.13435212 6.9648689 23.89008902 4.68359375 22.63671875 C3.75994019 22.13108398 3.75994019 22.13108398 2.81762695 21.61523438 C1.27579916 20.77015352 -0.26452673 19.92233395 -1.8046875 19.07421875 C-5.4507863 17.29009567 -6.9728447 18.37435728 -10.41796875 20.16796875 Z " fill="#AF251C" transform="translate(354,0)"/>
<path d="M0 0 C0.33 1.65 0.66 3.3 1 5 C-0.03898438 5.76183594 -1.07796875 6.52367187 -2.1484375 7.30859375 C-35.02191265 31.57187924 -54.89044811 61.99130607 -61.64794922 102.55273438 C-65.40782525 128.68934836 -61.4075342 156.30204985 -45.52929688 178.01074219 C-42.90324124 181.37879964 -40.1595839 184.6415346 -37.40234375 187.90234375 C-13.23274488 216.61285548 12.54291076 257.02422834 12.0625 295.9375 C12.05347656 296.89527344 12.04445313 297.85304688 12.03515625 298.83984375 C12.01775391 299.90912109 12.01775391 299.90912109 12 301 C12.66 301 13.32 301 14 301 C14.27199219 300.28457031 14.54398438 299.56914062 14.82421875 298.83203125 C16.00085935 295.99793015 17.31039476 293.36275339 18.8125 290.6875 C19.29332031 289.80449219 19.77414062 288.92148437 20.26953125 288.01171875 C22 286 22 286 24.36987305 285.6550293 C27.69575419 286.09125598 28.57902409 287.04922573 30.8125 289.5078125 C31.49570312 290.24773437 32.17890625 290.98765625 32.8828125 291.75 C33.58148438 292.53375 34.28015625 293.3175 35 294.125 C35.69867188 294.88554687 36.39734375 295.64609375 37.1171875 296.4296875 C40.86136977 300.52709452 44.48622475 304.70386073 48 309 C48.14695312 308.04222656 48.29390625 307.08445312 48.4453125 306.09765625 C53.47140676 275.45444328 69.69863041 249.24265116 87 224 C87.88158465 222.70577973 88.76309338 221.41150774 89.64453125 220.1171875 C93.85429337 213.95327167 98.11193598 207.82600167 102.43530273 201.74121094 C104.97023066 198.17014719 107.48863482 194.58766454 110 191 C110.52303711 190.25427734 111.04607422 189.50855469 111.58496094 188.74023438 C131.37481588 160.35821339 140.91735699 128.75142237 134.87109375 93.88842773 C134.06024471 89.88246634 133.08545629 85.93980431 132 82 C131.79632813 81.24460937 131.59265625 80.48921875 131.3828125 79.7109375 C123.33864236 50.81151146 106.20958845 28.36480812 81.80664062 11.26660156 C78.85643188 9.19826602 75.93035675 7.09633214 73 5 C73.33 3.35 73.66 1.7 74 0 C94.53640641 -0.62153058 114.21591683 12.47747702 128.7265625 25.84375 C131.54020819 28.51236241 134.29377718 31.22256079 137 34 C137.53625 33.46375 138.0725 32.9275 138.625 32.375 C141 31 141 31 143.84765625 31.6953125 C160.47522717 38.57710765 171.62308207 57.65434872 179.22265625 73.109375 C180 75 180 75 180 77 C180.66 77 181.32 77 182 77 C182.103125 76.0925 182.20625 75.185 182.3125 74.25 C183.00414949 70.98038425 183.82134921 69.46282263 186 67 C188.28515625 67.140625 188.28515625 67.140625 191 68 C207.94255177 90.68765031 208.29341888 127.07066695 208 154 C209.11375 153.95359375 210.2275 153.9071875 211.375 153.859375 C230.2623657 153.31109937 247.95696808 157.24260566 262.4375 170.25 C274.52617417 181.79293668 281.594977 198.58184856 282.203125 215.3203125 C282.51300425 234.10406238 278.40323763 249.0122855 265.10595703 262.89575195 C263.74788841 264.27434148 262.37439108 265.63768263 261 267 C260.37738281 267.65613281 259.75476563 268.31226563 259.11328125 268.98828125 C247.36359082 280.4739337 229.50688002 286.95455734 213.375 287.5 C200.55091036 287.08459062 190.18431344 282.89911385 180.93359375 274.015625 C174.69587705 267.29608049 171.82114657 260.19031481 172 251 C173.05565428 242.90251071 176.9422547 237.33845829 183 232 C187.34328564 228.88939853 191.7567601 228.55534952 196.91796875 229.35546875 C200.97771879 230.6122394 202.92088106 233.50978813 205.3125 236.8125 C207.01890039 242.24195578 206.48799264 246.52401472 204 251.5 C203.34897292 252.67546556 202.68771754 253.84561699 202 255 C206.09294562 253.58321113 208.42893569 252.60034966 211.4375 249.4375 C213.9613805 243.8849629 214.06513329 239.04697967 212.046875 233.2734375 C209.44230245 227.68514575 206.95013771 223.53530743 201 221.22265625 C194.96064162 219.45069173 190.54984539 220.13878674 185 223 C169.84157455 232.08638092 161.59093376 245.5647283 157.33950806 262.46925354 C155.71609593 269.42346502 155.41778095 276.22286998 155.38607788 283.33963013 C155.36704824 286.94336199 155.27958892 290.5456396 155.19921875 294.1484375 C155.17783592 295.19104485 155.17783592 295.19104485 155.15602112 296.25471497 C154.74429627 314.74868301 152.34439015 337.5787012 139.3359375 351.94140625 C136.53677751 355.60652711 136.33208672 357.75790331 136.0625 362.3125 C135.25300053 370.95174044 132.29257647 376.51602046 125.625 382.0625 C121.09190929 385.2148217 116.09815975 387.48845248 111.1472168 389.89868164 C100.15282372 395.30561328 88.6336166 401.61978969 83.9375 413.5625 C82.65985347 417.99577951 83.29149865 420.77370719 85 425 C90.28199593 426.19988045 90.28199593 426.19988045 95 424 C96.2816058 420.73773069 96.07875324 417.46514242 96 414 C97.32 413.34 98.64 412.68 100 412 C107.28485577 419.09314904 107.28485577 419.09314904 107.375 424.3125 C107.23122158 428.98908217 106.21917819 431.46675565 103 435 C97.5533099 439.64057997 92.29774314 442.56136486 85 442 C79.13629835 440.33861787 76.39812206 437.8397496 73 433 C73 432.34 73 431.68 73 431 C63.0292515 430.99170032 53.05914592 431.01548143 43.08858871 431.0802784 C38.4588247 431.10935713 33.829568 431.12736235 29.19970703 431.12011719 C24.73190893 431.11353212 20.265114 431.13596102 15.7975235 431.17855453 C14.09272075 431.1897006 12.38781644 431.19037232 10.68300629 431.18042374 C8.29504375 431.16827404 5.9101542 431.19328251 3.52246094 431.22705078 C2.46402229 431.20871941 2.46402229 431.20871941 1.38420105 431.1900177 C-0.85471604 431.18344949 -0.85471604 431.18344949 -4 432 C-6.41651982 434.85148779 -6.41651982 434.85148779 -8 438 C-11.77407053 441.09522273 -15.70462605 442.33988538 -20.5625 442 C-27.62056238 440.76301999 -32.41494021 437.36276987 -36.83203125 431.78515625 C-38.60517783 429.0750292 -39.06619746 427.24367538 -39 424 C-38.01970329 419.60997561 -36.66011624 416.67661915 -33.5 413.4375 C-32.675 412.963125 -31.85 412.48875 -31 412 C-30.01 412.33 -29.02 412.66 -28 413 C-27.96132813 413.90492188 -27.96132813 413.90492188 -27.921875 414.828125 C-27.65149427 418.63803524 -27.41054294 421.33681524 -25.375 424.625 C-21.95033962 426.60769811 -19.73673658 425.98706249 -16 425 C-13.99698003 420.99396005 -14.40436664 416.1531341 -15.578125 411.91015625 C-21.46279819 398.40215642 -38.03819194 391.79100481 -50.5625 385.875 C-58.20866834 382.08822735 -63.11310355 377.38592581 -66.28515625 369.39453125 C-67.88449175 364.0371943 -68.45501724 358.96007428 -67.1875 353.5 C-66.93620161 348.80909671 -68.78828748 346.83897306 -71.3046875 343 C-79.93335189 327.73084274 -80.93935536 308.48303661 -81.20698547 291.39868164 C-81.57978063 267.87795378 -83.91043064 247.93099128 -101 230 C-107.08060081 224.57286995 -113.65341108 220.28293522 -122 220 C-126.95151354 220.87780705 -130.21723486 222.25126813 -133.875 225.75 C-138.02596039 232.09852765 -140.01751748 237.45112033 -139 245 C-137.46241053 249.15149156 -135.90159664 251.80535189 -132 254 C-131.01 254 -130.02 254 -129 254 C-129.495 253.01 -129.99 252.02 -130.5 251 C-132.30491005 246.72521304 -132.51455239 243.63097151 -132 239 C-129.96960499 235.15675231 -127.8819364 232.04879977 -124 230 C-118.43613611 228.60903403 -114.9555038 228.70274191 -109.953125 231.578125 C-104.31511702 235.68259481 -100.23518166 240.81952672 -98.375 247.5859375 C-97.02790188 256.25788167 -99.2227323 263.75344329 -104 271 C-110.87701325 279.81937577 -121.03476205 285.29241468 -132 287 C-150.20004263 288.64348211 -168.34855273 282.87833963 -182.49609375 271.25 C-185.48398191 268.64008947 -188.24726886 265.85563698 -191 263 C-191.66257812 262.36835938 -192.32515625 261.73671875 -193.0078125 261.0859375 C-197.07886629 256.94186032 -199.6869461 252.1922736 -202.3125 247.0625 C-202.81958496 246.07793823 -202.81958496 246.07793823 -203.33691406 245.07348633 C-210.97072848 229.4249402 -209.37759501 211.09775183 -204 195 C-197.8834149 178.65501173 -188.31991566 168.22437578 -173 160 C-169.39465975 158.37255613 -165.80020959 157.09069459 -162 156 C-160.87464844 155.66355469 -160.87464844 155.66355469 -159.7265625 155.3203125 C-151.34364481 153.23173574 -142.57236466 153.83191442 -134 154 C-134.02320313 153.11183594 -134.04640625 152.22367188 -134.0703125 151.30859375 C-134.39760071 128.14126376 -134.38920939 86.18187991 -117 68 C-114.34765625 67.28515625 -114.34765625 67.28515625 -112 67 C-108 72.5 -108 72.5 -108 77 C-107.34 77 -106.68 77 -106 77 C-105.75121094 76.16597656 -105.50242187 75.33195312 -105.24609375 74.47265625 C-99.2902766 57.87478337 -87.06900702 42.08476481 -72.3125 32.4375 C-69 31 -69 31 -66.1875 31.75 C-65.465625 32.1625 -64.74375 32.575 -64 33 C-61.68782151 33.23292725 -61.68782151 33.23292725 -59.63671875 30.69140625 C-58.65283207 29.64920513 -57.66982102 28.60617695 -56.6875 27.5625 C-42.59038808 13.10720375 -20.86043392 -0.63133722 0 0 Z M-51.42773438 31.42529297 C-56.55518383 36.5607043 -61.26952965 42.1336997 -65.0234375 48.3515625 C-65.67570313 49.22554687 -66.32796875 50.09953125 -67 51 C-68.32 51 -69.64 51 -71 51 C-70.67 47.37 -70.34 43.74 -70 40 C-87.38740994 50.25411355 -96.03758251 69.1988538 -104.01367188 86.85620117 C-104.96667001 88.92755677 -105.96875808 90.96664239 -107 93 C-108.32 93 -109.64 93 -111 93 C-111.12117188 92.08476562 -111.24234375 91.16953125 -111.3671875 90.2265625 C-111.53476563 89.03804688 -111.70234375 87.84953125 -111.875 86.625 C-112.03742188 85.44164062 -112.19984375 84.25828125 -112.3671875 83.0390625 C-112.7302585 79.90433341 -112.7302585 79.90433341 -115 78 C-123.92908293 101.51325172 -127.04919989 124.40011664 -127.65893555 149.46411133 C-127.70594604 151.29171997 -127.70594604 151.29171997 -127.75390625 153.15625 C-127.78979858 154.80850586 -127.78979858 154.80850586 -127.82641602 156.49414062 C-128 159 -128 159 -129 160 C-130.90881221 159.99574875 -132.81790631 159.98409899 -134.72607422 159.93432617 C-152.60366371 159.49220789 -169.28887267 162.85661785 -183 175 C-183.60328125 175.47566406 -184.2065625 175.95132813 -184.828125 176.44140625 C-195.88745929 185.9813275 -200.75970805 203.02243762 -201.8125 217 C-202.65898504 233.23660557 -196.99924906 246.33395024 -186.36328125 258.54296875 C-174.26965221 271.11634506 -157.70446834 279.99801091 -140.1484375 281.05859375 C-128.78775738 280.8471667 -120.52142415 276.90793258 -112.1875 269.5 C-107.1408199 263.7323656 -104.60244015 259.04368097 -104.7265625 251.41015625 C-105.36683697 245.76659418 -107.94299133 241.50986858 -112.3125 237.9375 C-115.22781166 236.07144922 -116.12725751 236 -119.8125 236 C-123.26452452 236.71661176 -123.26452452 236.71661176 -125 240 C-125.47361044 244.18355893 -125.29603995 246.44081342 -123.3125 250.1875 C-121.11232503 253.07634964 -121.11232503 253.07634964 -118.25 255.125 C-117.5075 255.74375 -116.765 256.3625 -116 257 C-116 258.32 -116 259.64 -116 261 C-123.58071356 262.19619625 -129.9379038 262.30756404 -137 259 C-142.17746362 254.92412439 -144.83186238 250.16872563 -145.8125 243.6875 C-146.50450119 234.69148457 -143.61095732 227.03518281 -138 220 C-131.2239773 214.40241603 -124.6326685 213.20593062 -116 214 C-108.46810673 215.8577924 -102.75494291 219.94556512 -97 225 C-96.39414063 225.51175781 -95.78828125 226.02351562 -95.1640625 226.55078125 C-81.19833766 239.28423625 -75.73606503 258.65028775 -74.79785156 276.94091797 C-74.69225411 280.45461879 -74.63957633 283.96876681 -74.59463501 287.48370361 C-74.31662807 306.54922436 -73.98750429 327.51874357 -63 344 C-60.10624129 344.21266555 -60.10624129 344.21266555 -56.8125 343.9375 C-50.74422968 343.79684473 -47.8001584 344.32328293 -43 348 C-42.49049805 348.69834961 -41.98099609 349.39669922 -41.45605469 350.11621094 C-37.54490919 353.11605176 -33.55433001 352.49321509 -28.765625 352.390625 C-27.77246277 352.38496521 -26.77930054 352.37930542 -25.75604248 352.37347412 C-22.58686941 352.35110026 -19.4188308 352.30090106 -16.25 352.25 C-14.10027676 352.22993635 -11.95053577 352.21168534 -9.80078125 352.1953125 C-4.53346771 352.15123239 0.73318509 352.08431033 6 352 C6.22139648 351.30849854 6.44279297 350.61699707 6.67089844 349.90454102 C7.68028702 346.78473202 8.71473165 343.67381179 9.75 340.5625 C10.09804688 339.47388672 10.44609375 338.38527344 10.8046875 337.26367188 C11.15273438 336.22919922 11.50078125 335.19472656 11.859375 334.12890625 C12.17358398 333.17056885 12.48779297 332.21223145 12.81152344 331.22485352 C14 329 14 329 16.13378906 328.17944336 C16.74963867 328.12022705 17.36548828 328.06101074 18 328 C18.06058594 326.78441406 18.12117187 325.56882812 18.18359375 324.31640625 C18.26798332 322.73175772 18.3526321 321.14712298 18.4375 319.5625 C18.47681641 318.76005859 18.51613281 317.95761719 18.55664062 317.13085938 C18.88671875 311.11328125 18.88671875 311.11328125 20 310 C22.5 309.875 22.5 309.875 25 310 C27.11925604 312.11925604 26.41831017 316.6196093 26.5625 319.5625 C26.60568359 320.36880859 26.64886719 321.17511719 26.69335938 322.00585938 C26.79975262 324.00368805 26.90040888 326.0018207 27 328 C27.99 328 28.98 328 30 328 C30.33 324.37 30.66 320.74 31 317 C33.31 317.33 35.62 317.66 38 318 C38.33 321.3 38.66 324.6 39 328 C40.98 328.33 42.96 328.66 45 329 C46.98 336.59 48.96 344.18 51 352 C58.81035115 352.17359727 66.6195689 352.30033712 74.43139648 352.38452148 C77.08699221 352.41566861 79.73991926 352.46730677 82.39526367 352.52807617 C86.22087843 352.61340853 90.04469786 352.65278763 93.87109375 352.68359375 C95.04957382 352.71972275 96.22805389 352.75585175 97.44224548 352.79307556 C105.84415557 352.79704013 109.95015882 350.70292759 116 345 C119.93021674 343.03489163 124.71604362 343.52469072 129 344 C132.1875 346 132.1875 346 134 348 C146.69985722 331.50327825 148.39734899 310.58835717 148.5 290.5 C148.62523763 265.99153979 152.55651736 244.06937625 169.9375 225.5625 C177.93995568 218.00728735 187.03489591 213.37249079 198.12109375 213.62890625 C204.75100075 214.48350756 210.15778879 217.50199594 214.4375 222.625 C219.21209931 229.85471998 220.78792969 237.88170227 219.62890625 246.421875 C218.41418227 251.40148881 216.34984417 255.20367468 212.2421875 258.34375 C205.45361684 262.19152284 197.52375066 262.78194095 190 261 C190.125 258.8125 190.125 258.8125 191 256 C192.96185416 254.28859531 194.96302383 252.62126675 197 251 C199.53613694 247.54163144 199.44903371 244.19098127 199 240 C197.60314994 237.3530128 197.60314994 237.3530128 195 236 C190.60632148 235.92011494 188.62794489 236.47195544 185.25 239.3125 C180.66845979 244.78489525 178.60186946 248.37662054 178.73046875 255.6015625 C179.61265633 263.45175343 185.06971044 269.21684763 191 274 C201.24401981 280.71042757 211.3742597 281.72696555 223.296875 279.8203125 C241.13362989 275.86913262 256.93602651 264.75819494 267.24609375 249.82421875 C275.801935 236.04721826 277.89224721 222.21226233 274.3125 206.5 C271.78546774 196.14599753 268.00963691 187.13742502 261 179 C260.49984375 178.40574219 259.9996875 177.81148437 259.484375 177.19921875 C249.38608999 166.14502812 234.63660171 161.15043079 220 160 C217.01855275 159.91902892 214.04428946 159.94800716 211.0625 160 C208.36894185 160.04530796 205.69479597 160.0476428 203 160 C201.21173565 158.21173565 201.82726805 155.53127172 201.7890625 153.11328125 C201.76295898 151.87553955 201.73685547 150.63779785 201.70996094 149.36254883 C201.69670776 148.70203522 201.68345459 148.04152161 201.6697998 147.36099243 C201.15450305 123.79880271 198.98258319 99.69399364 189 78 C186.27893306 80.72106694 186.39344428 82.84776311 185.875 86.625 C185.70742188 87.81351562 185.53984375 89.00203125 185.3671875 90.2265625 C185.24601562 91.14179688 185.12484375 92.05703125 185 93 C182.70703125 92.9453125 182.70703125 92.9453125 180 92 C178.63129874 89.58247372 177.65297678 87.44890987 176.6875 84.875 C176.08931381 83.40823955 175.48631955 81.94343218 174.87890625 80.48046875 C174.57098145 79.7332959 174.26305664 78.98612305 173.94580078 78.21630859 C167.80287209 63.82149531 158.90485783 51.27929491 147 41 C146.01 40.67 145.02 40.34 144 40 C144.33 43.63 144.66 47.26 145 51 C140 50 140 50 138.3671875 48.13671875 C137.62855469 46.92435547 137.62855469 46.92435547 136.875 45.6875 C127.90616347 32.16673783 114.43094989 18.94884751 99 13 C98.34 13.33 97.68 13.66 97 14 C97.88300781 14.76441406 98.76601563 15.52882812 99.67578125 16.31640625 C123.41541822 37.30969306 137.22808257 65.77257233 142 97 C142.13019531 97.82757813 142.26039063 98.65515625 142.39453125 99.5078125 C147.12610547 136.72952971 134.46469433 169.48636891 112.57275391 198.86816406 C108.20577891 204.78750987 104.11767398 210.90612996 100 217 C99.31711914 218.00804687 98.63423828 219.01609375 97.93066406 220.0546875 C66.48859213 266.27693614 66.48859213 266.27693614 54 320 C51.921875 320.4296875 51.921875 320.4296875 49 320 C46.44678458 317.988041 44.3833456 315.56806239 42.25 313.125 C41.63817871 312.44622803 41.02635742 311.76745605 40.39599609 311.06811523 C38.58555081 309.0555837 36.79268181 307.02834668 35 305 C34.03056072 303.92405282 33.05939741 302.84965464 32.0859375 301.77734375 C30.04652422 299.52751481 28.0180513 297.26897302 26 295 C21.20740373 299.11742682 18.69576057 304.64503786 15.79882812 310.15234375 C14.63424402 312.24391519 13.5409252 314.16704226 12 316 C9.18359375 316.515625 9.18359375 316.515625 7 316 C6.96261719 314.69289063 6.92523438 313.38578125 6.88671875 312.0390625 C6.02301056 286.85864673 1.01461574 264.69710018 -10 242 C-10.31308105 241.35321289 -10.62616211 240.70642578 -10.94873047 240.04003906 C-20.10189281 221.42360195 -32.6569057 204.67145035 -45.7265625 188.64453125 C-65.07710954 164.7060141 -71.43009152 136.89809013 -68.77734375 106.44384766 C-68.16456768 101.22554158 -67.17591541 96.11820978 -66 91 C-65.83902832 90.28215332 -65.67805664 89.56430664 -65.51220703 88.82470703 C-58.55191648 58.75705418 -43.08709833 33.37461128 -21 12 C-31.23605921 12 -44.39787691 24.7258809 -51.42773438 31.42529297 Z M-39 364 C-39.13430355 367.5525456 -38.90775618 369.98368561 -36.47705078 372.70507812 C-34.39687433 374.47717715 -32.25654638 376.12109029 -30.0625 377.75 C-28.50057427 378.97588936 -26.94326778 380.2076869 -25.390625 381.4453125 C-24.25657227 382.34878418 -24.25657227 382.34878418 -23.09960938 383.27050781 C-13.99735767 390.76822306 -7.73747971 399.78756087 -4 411 C3.59 411 11.18 411 19 411 C19.49694335 406.29055508 19.49694335 406.29055508 19.95605469 401.57739258 C20.5119404 396.92090648 21.66697084 394.27907725 25 391 C29.31811075 388.12993041 34.00001046 388.49447183 39 389 C42.5736787 390.23454355 44.35560228 391.14080304 46.6171875 394.15625 C49.18414455 399.43518992 48.72950434 405.21139287 49 411 C56.59 411 64.18 411 72 411 C73.134375 408.73125 74.26875 406.4625 75.4375 404.125 C81.82558146 391.89075999 91.68221207 381.99109742 103 374.125 C106.15049006 372.16247425 106.15049006 372.16247425 108 369 C108.33343551 366.45792029 108.33343551 366.45792029 108 364 C105.33362276 361.33362276 104.07002006 361.74870822 100.34411621 361.74603271 C99.14103317 361.74039307 97.93795013 361.73475342 96.69841003 361.72894287 C95.35818422 361.73283181 94.01795899 361.73692817 92.67773438 361.74121094 C91.27183348 361.73850206 89.865934 361.73494171 88.46003723 361.73059082 C84.63572796 361.72145221 80.81152626 361.72501709 76.98721504 361.73134899 C72.9909447 361.73640139 68.99468377 361.73171966 64.99841309 361.72857666 C58.28652283 361.72493479 51.57467655 361.72974189 44.86279297 361.73925781 C37.09541408 361.7501428 29.32814018 361.74661738 21.56076384 361.735605 C14.90001636 361.7265384 8.23930055 361.72524377 1.57854891 361.73048234 C-2.40320272 361.7336055 -6.38490496 361.73400193 -10.36665344 361.72740936 C-14.10947412 361.72164561 -17.85215902 361.72561485 -21.59496498 361.73719788 C-22.97124824 361.73984969 -24.34754286 361.73907053 -25.72382164 361.73467255 C-27.5972491 361.72923641 -29.47070144 361.73725078 -31.34411621 361.74603271 C-32.39420616 361.74678677 -33.44429611 361.74754082 -34.52620697 361.74831772 C-37.1759393 361.75466985 -37.1759393 361.75466985 -39 364 Z M26 398 C24.67770811 400.64458379 24.90322806 402.67761301 24.9375 405.625 C24.958125 407.39875 24.97875 409.1725 25 411 C31.27 411 37.54 411 44 411 C44.58171243 402.92716756 44.58171243 402.92716756 41 396 C35.47668667 392.31779111 29.96329071 392.60992464 26 398 Z M-2 420 C-2.33 420.99 -2.66 421.98 -3 423 C21.42 423 45.84 423 71 423 C71 422.01 71 421.02 71 420 C46.91 420 22.82 420 -2 420 Z " fill="#AF251C" transform="translate(312,148)"/>
<path d="M0 0 C0.60714844 0.50144531 1.21429687 1.00289063 1.83984375 1.51953125 C8.12143157 7.16883671 12.64649064 15.12575108 14.0625 23.5 C14.52618524 33.75671756 10.59869572 42.38102402 4 50 C-1.11402125 55.3368313 -7.27156904 59.89841844 -14 63 C-14.66 62.67 -15.32 62.34 -16 62 C-15.52949219 61.27296875 -15.05898438 60.5459375 -14.57421875 59.796875 C-8.24207578 49.57105406 -4.60406042 40.6857325 -7.2109375 28.625 C-9.14930903 22.17655611 -13.50688578 17.68630538 -19 14 C-31.11955531 8.11762724 -42.92036675 7.18515322 -55.80078125 11.61328125 C-77.19400221 20.88628911 -89.32210023 41.34040373 -97.84765625 62.06005859 C-104.160882 78.27391675 -106.87428467 95.57640672 -109.51464844 112.69677734 C-111.78875211 127.29542477 -114.8611841 139.21504566 -125.875 149.75 C-138.98405351 159.18851853 -154.30344075 160.19593486 -170 160 C-167.13475655 158.44608078 -164.47362301 157.57096591 -161.3125 156.8125 C-154.51627303 154.83194273 -149.41697698 150.92966907 -144.9375 145.5 C-143.63761597 142.03364258 -143.48387459 139.67739356 -144 136 C-145.79349379 133.03077139 -147.84904142 130.57547929 -151 129 C-152.45579587 128.90444583 -153.9160796 128.87015309 -155.375 128.875 C-156.53128906 128.87113281 -156.53128906 128.87113281 -157.7109375 128.8671875 C-159.9328189 128.99610212 -161.86618508 129.38616283 -164 130 C-165.33359987 135.12974411 -165.33359987 135.12974411 -163.91796875 139.984375 C-162.99540794 141.17379225 -162.03394122 142.3343371 -161.03125 143.45703125 C-160.6909375 143.96621094 -160.350625 144.47539062 -160 145 C-160.33 145.99 -160.66 146.98 -161 148 C-167.00149221 145.41314991 -171.67752537 142.8086022 -175 137 C-176.74320561 131.64307041 -176.2730607 126.49307601 -174.234375 121.2890625 C-167.67287988 109.12122662 -153.86478323 98.99567419 -143.59765625 89.99609375 C-136.54307097 83.92856637 -136.54307097 83.92856637 -132 76 C-131.65072338 72.7568718 -131.65072338 72.7568718 -133 70 C-136.46290104 67.44404923 -138.4418692 66.98139564 -142.75 67.125 C-146.26910119 67.68948212 -146.26910119 67.68948212 -148 71 C-148.45601261 73.50896686 -148.45601261 73.50896686 -148.625 76.1875 C-148.69976562 77.08855469 -148.77453125 77.98960937 -148.8515625 78.91796875 C-148.90054687 79.60503906 -148.94953125 80.29210937 -149 81 C-151.475 81.495 -151.475 81.495 -154 82 C-157.28033186 73.74059299 -158.64010604 66.18911268 -155.03125 57.78515625 C-151.89383752 52.35410511 -146.99726562 50.1909791 -141.22265625 48.50390625 C-134.79570332 47.04682905 -128.83895929 48.05865159 -123 51 C-118.94873518 54.42725484 -117.31583277 58.04877572 -116.76171875 63.2265625 C-116.42507216 74.10556275 -120.7802502 82.091288 -128 90 C-134.50440829 96.70806882 -141.97643176 101.33715354 -150 106 C-149.154375 106.20753906 -148.30875 106.41507812 -147.4375 106.62890625 C-139.99836269 108.64930831 -133.90443753 110.80830852 -129 117 C-126.5195378 121.49230288 -126.76632151 125.8258291 -126.875 130.8125 C-126.88402344 131.60076172 -126.89304687 132.38902344 -126.90234375 133.20117188 C-126.92577496 135.13424666 -126.96164162 137.0671638 -127 139 C-118.53093417 129.14765342 -116.52003531 118.95182521 -115.5625 106.25 C-112.18729042 69.08014995 -100.45179062 31.82174181 -71 7 C-49.98026802 -9.23177278 -22.25427438 -19.18792342 0 0 Z " fill="#AF251C" transform="translate(552,335)"/>
<path d="M0 0 C2.4125692 2.22217392 4.73050963 4.51545119 7.03442383 6.85083008 C7.68797852 7.50567383 8.3415332 8.16051758 9.01489258 8.83520508 C24.10169551 24.99223888 32.65630691 46.77516378 38.03442383 67.85083008 C38.3515332 69.08833008 38.66864258 70.32583008 38.99536133 71.60083008 C40.97207254 80.36881644 41.68160662 89.15306457 42.21313477 98.11352539 C42.86349572 107.85599713 44.79696847 116.45507115 49.85083008 124.87817383 C51.01974819 126.82637067 52.04260409 128.80777283 53.03442383 130.85083008 C53.69442383 130.85083008 54.35442383 130.85083008 55.03442383 130.85083008 C54.68379883 129.75770508 54.33317383 128.66458008 53.97192383 127.53833008 C52.21511194 120.28026051 52.69146697 113.40365722 56.53442383 106.91333008 C61.58094018 100.15244693 69.14553901 98.57204131 77.03442383 96.85083008 C75.80079102 96.14120117 75.80079102 96.14120117 74.54223633 95.41723633 C62.57163545 88.32610671 48.95645202 79.00047026 44.46801758 65.08911133 C43.30238172 59.07191003 43.21787107 53.13717779 45.28442383 47.35083008 C48.96375493 42.09464279 51.61910298 40.13389425 58.03442383 38.85083008 C65.43464041 38.25403842 71.59509765 39.68255923 77.90942383 43.66333008 C82.71084844 48.60597306 84.0558486 54.13416288 84.03442383 60.85083008 C82.97121475 69.91403915 82.97121475 69.91403915 80.03442383 72.85083008 C77.90942383 72.47583008 77.90942383 72.47583008 76.03442383 71.85083008 C75.98543945 71.24754883 75.93645508 70.64426758 75.88598633 70.02270508 C75.77383789 68.82387695 75.77383789 68.82387695 75.65942383 67.60083008 C75.55500977 66.4174707 75.55500977 66.4174707 75.44848633 65.21020508 C75.00757225 62.69782673 74.44654615 60.97609779 73.03442383 58.85083008 C68.39710094 57.62587686 65.27363078 57.5495463 61.03442383 59.85083008 C58.80770815 61.70267241 58.80770815 61.70267241 58.53442383 64.47583008 C59.71295089 72.43088773 67.29282379 78.28324917 72.97192383 83.47583008 C73.70830078 84.16241699 74.44467773 84.84900391 75.20336914 85.55639648 C78.86501807 88.9647879 82.56105374 92.32880769 86.30395508 95.64770508 C99.32274727 107.28512235 99.32274727 107.28512235 102.03442383 115.85083008 C102.36442383 116.86145508 102.69442383 117.87208008 103.03442383 118.91333008 C103.03442383 124.07302717 101.85551721 128.69028856 98.48364258 132.69067383 C94.97627496 135.87141297 91.69299222 137.71459389 87.03442383 138.85083008 C87.43936155 135.40885945 88.11677204 133.73457378 90.15942383 130.85083008 C92.27181919 128.06062133 92.27181919 128.06062133 92.03442383 125.16333008 C90.73693587 122.16288916 90.01340725 121.2658472 87.03442383 119.85083008 C82.79403204 119.27223456 79.18360472 119.42613279 75.15942383 120.91333008 C72.11958187 123.68495068 71.07898417 125.86844379 70.03442383 129.85083008 C70.65238438 135.78558327 74.16281023 139.67279606 78.64379883 143.31567383 C82.07792135 145.52091917 85.6407249 146.80224799 89.51879883 148.02661133 C91.83655981 148.78600196 93.88795439 149.70236863 96.03442383 150.85083008 C80.68688959 151.56039074 63.77988603 149.90587267 51.72192383 139.60083008 C38.84389587 127.18633051 37.21476947 110.49029369 34.69604492 93.57885742 C30.24311186 63.91626568 20.44027511 30.66366247 -3.41088867 10.63208008 C-14.56536656 2.85464596 -26.32049793 -1.37431724 -39.96557617 -0.14916992 C-48.82513238 1.61672124 -57.20414516 4.43022147 -62.52416992 12.09692383 C-66.52129108 18.99280707 -68.09419815 25.3321352 -66.46948242 33.27661133 C-65.0166395 38.55445313 -62.93539842 43.13854454 -60.14916992 47.84301758 C-58.99153022 49.80680241 -57.96260159 51.80164419 -56.96557617 53.85083008 C-67.78469951 50.69393045 -77.84249253 42.30594062 -83.30932617 32.42114258 C-87.32193575 23.679386 -88.16791808 15.72768634 -85.12963867 6.49926758 C-80.42678175 -4.200521 -71.70365109 -12.56045364 -61.09838867 -17.36401367 C-39.69601739 -25.2429086 -16.15575442 -14.25128483 0 0 Z " fill="#AF251C" transform="translate(213.965576171875,344.149169921875)"/>
<path d="M0 0 C3.40569591 2.14706916 5.80960782 4.10417103 7 8 C7.4785596 12.94511588 7.52320037 15.04079932 5.125 19.4375 C3 22 3 22 1 23 C1.99 23.66 2.98 24.32 4 25 C5.051875 24.2575 5.051875 24.2575 6.125 23.5 C9.45800237 21.76104224 11.29065683 21.52646683 15 22 C17.375 23.5 17.375 23.5 19 25 C19.61875 24.690625 20.2375 24.38125 20.875 24.0625 C24.6027709 22.19861455 26.74501352 21.66627557 31 22 C34.81000311 23.7318196 36.42660225 25.17057012 38 29 C38.32697582 31.05443668 38.32697582 31.05443668 38.4370575 33.27931213 C38.50645538 34.55108055 38.50645538 34.55108055 38.57725525 35.84854126 C38.61838943 36.77065399 38.65952362 37.69276672 38.7019043 38.64282227 C38.77790359 40.10949089 38.77790359 40.10949089 38.85543823 41.60578918 C39.02068537 44.84228171 39.17280185 48.07923936 39.32421875 51.31640625 C39.43529243 53.57123048 39.54693907 55.82602656 39.65913391 58.08079529 C39.89254511 62.81247451 40.1195725 67.54440533 40.34204102 72.27661133 C40.62659569 78.32045942 40.92592453 84.36346394 41.22999859 90.40635777 C41.46302139 95.0671467 41.68855607 99.72827518 41.91184425 104.38953972 C42.0193104 106.61621647 42.12895692 108.84278916 42.24088097 111.06924629 C42.39685594 114.19633123 42.54282563 117.32373479 42.6862793 120.45141602 C42.73348618 121.35935913 42.78069305 122.26730225 42.82933044 123.20275879 C43.63217286 141.62675177 43.63217286 141.62675177 38 148 C32.25658688 153.8356489 26.09356713 156.19728914 18.47070312 158.83398438 C9.58809745 162.10652331 3.83399946 167.53205409 -1.875 174.9375 C-3.2057761 176.66008997 -4.56974774 178.35906743 -6 180 C-6.66 180 -7.32 180 -8 180 C-8.93715922 178.516662 -9.79907474 176.9855331 -10.625 175.4375 C-16.74923717 165.07004135 -25.46206272 160.99927418 -35.96044922 155.98193359 C-39.08603537 154.4771326 -42.17165477 152.9124066 -45.25 151.3125 C-46.26578125 150.79300781 -47.2815625 150.27351562 -48.328125 149.73828125 C-52.97106636 146.7176542 -55.0053077 143.82914322 -56.14680481 138.45635986 C-57.15012746 133.07881193 -56.96330823 128.19676491 -56.41674805 122.78027344 C-56.33086426 121.81309387 -56.24498047 120.84591431 -56.15649414 119.84942627 C-55.87198627 116.6846472 -55.56712217 113.52220008 -55.26171875 110.359375 C-55.05827874 108.14612595 -54.856053 105.93276498 -54.65498352 103.71929932 C-54.12406846 97.91390686 -53.57551461 92.1103092 -53.02355957 86.30688477 C-52.5758829 81.56863456 -52.14066549 76.82927913 -51.70611858 72.08980942 C-51.18697195 66.42929419 -50.66278455 60.76925102 -50.13671875 55.109375 C-50.03669744 54.03322685 -49.93667614 52.9570787 -49.83362389 51.84832001 C-49.54888084 48.79933888 -49.26080782 45.75069331 -48.97143555 42.70214844 C-48.88773209 41.80435669 -48.80402863 40.90656494 -48.7177887 39.98156738 C-47.53571879 27.6394063 -47.53571879 27.6394063 -45.0625 24.6875 C-41.60740495 21.86060405 -39.43412812 21.73395231 -35 22 C-32.625 23 -32.625 23 -31 24 C-31 24.66 -31 25.32 -31 26 C-29.96875 25.34 -28.9375 24.68 -27.875 24 C-24.42798893 22.0432119 -22.01348931 21.37567944 -18 22 C-16.64377755 22.96873032 -15.30582947 23.96434215 -14 25 C-13.01 24.67 -12.02 24.34 -11 24 C-11.78375 23.2575 -12.5675 22.515 -13.375 21.75 C-16.77590714 18.18714491 -17.83183985 16.51344134 -18.375 11.625 C-17.92230438 7.24894231 -16.86419662 5.31643819 -14 2 C-9.30349474 -1.30890143 -5.3758979 -1.64048018 0 0 Z M-11 7 C-13.30260759 9.81598187 -13.30260759 9.81598187 -12.875 13 C-12.2445411 16.05597929 -12.2445411 16.05597929 -10.125 17.875 C-7.95884321 19.23394386 -7.95884321 19.23394386 -5 19 C-2.56726022 15.1637565 -1.85938979 13.67060255 -2.8125 9.125 C-3.204375 8.09375 -3.59625 7.0625 -4 6 C-3.34 5.67 -2.68 5.34 -2 5 C-5.91565932 3.40473139 -7.7112233 4.57669085 -11 7 Z M-2 6 C-1.34 6.66 -0.68 7.32 0 8 C0 7.34 0 6.68 0 6 C-0.66 6 -1.32 6 -2 6 Z M0 8 C0.33 9.98 0.66 11.96 1 14 C1.33 14 1.66 14 2 14 C2 12.35 2 10.7 2 9 C1.34 8.67 0.68 8.34 0 8 Z M0 14 C1 16 1 16 1 16 Z M-41 27 C-43.25162602 29.75471394 -43.25162602 29.75471394 -42.9375 32.5625 C-42.20025401 35.1919108 -42.20025401 35.1919108 -39.6875 36.5 C-36.95077044 37.31486338 -36.95077044 37.31486338 -34.6875 35.625 C-34.130625 35.08875 -33.57375 34.5525 -33 34 C-33.27540704 30.18186553 -33.27540704 30.18186553 -35 27 C-37.95804573 26.66659529 -37.95804573 26.66659529 -41 27 Z M-25.9375 29.25 C-27.24503602 31.87867962 -27.24503602 31.87867962 -26.5 34.25 C-25.08065519 36.19792969 -25.08065519 36.19792969 -22.5625 36.875 C-19.75556583 37.26646351 -19.75556583 37.26646351 -17 35 C-15.99521963 33.1477633 -15.99521963 33.1477633 -16 31 C-17.00966359 28.65373496 -17.00966359 28.65373496 -19 27 C-22.59287257 26.19160367 -23.51111121 26.43225818 -25.9375 29.25 Z M-8 27 C-10.25162602 29.75471394 -10.25162602 29.75471394 -9.9375 32.5625 C-9.20025401 35.1919108 -9.20025401 35.1919108 -6.6875 36.5 C-3.99699948 37.26779486 -3.99699948 37.26779486 -1.6875 35.9375 C0.22148113 34.09822611 0.22148113 34.09822611 0.375 31.4375 C0.21896136 28.82471891 0.21896136 28.82471891 -2 27 C-5 26.58333333 -5 26.58333333 -8 27 Z M7 29 C6.63203552 31.87012296 6.62490591 33.40774618 8.1875 35.875 C10.00817822 37.24281865 10.00817822 37.24281865 12.5625 36.875 C15.3261611 36.15610832 15.3261611 36.15610832 17 33 C16.64111965 30.03923709 16.15341979 29.15341979 14 27 C10.0325491 26.56530472 10.0325491 26.56530472 7 29 Z M24.125 28.1875 C22.77477211 30.00732448 22.77477211 30.00732448 23 32.5625 C23.80597165 35.1860608 23.80597165 35.1860608 26.3125 36.5 C29.00300052 37.26779486 29.00300052 37.26779486 31.3125 35.9375 C33.22148113 34.09822611 33.22148113 34.09822611 33.375 31.4375 C33.21896136 28.82471891 33.21896136 28.82471891 31 27 C28.12987704 26.63203552 26.59225382 26.62490591 24.125 28.1875 Z M-13 38 C-13.67641547 43.65174115 -14.35181776 49.30360223 -15.02636719 54.95556641 C-15.2549444 56.86966044 -15.48377652 58.78372406 -15.71289062 60.69775391 C-16.48284833 67.13095314 -17.24510043 73.56501659 -18 80 C-18.10235962 80.86806274 -18.20471924 81.73612549 -18.31018066 82.63049316 C-18.59869804 85.08916809 -18.88223361 87.54836297 -19.1640625 90.0078125 C-19.24933197 90.73064423 -19.33460144 91.45347595 -19.42245483 92.19821167 C-19.86939555 96.1537515 -20.08316012 100.019972 -20 104 C-16.57620903 100.8685777 -14.18120399 97.38830271 -11.8125 93.4375 C-11.45736328 92.86064453 -11.10222656 92.28378906 -10.73632812 91.68945312 C-8.24695266 87.59402898 -6.87243155 84.50084118 -6.88647461 79.7121582 C-6.88655014 78.85149246 -6.88662567 77.99082672 -6.88670349 77.1040802 C-6.89444542 75.71644722 -6.89444542 75.71644722 -6.90234375 74.30078125 C-6.9037587 73.35059616 -6.90517365 72.40041107 -6.90663147 71.4214325 C-6.91223125 68.38508971 -6.92478368 65.34882052 -6.9375 62.3125 C-6.94251503 60.25455836 -6.94707793 58.19661556 -6.95117188 56.13867188 C-6.9622006 51.09241954 -6.97946507 46.04622225 -7 41 C-8.98 40.01 -10.96 39.02 -13 38 Z M-3 41 C-3.77992251 43.58644458 -3.77992251 43.58644458 -3.70703125 46.56640625 C-3.73667969 47.68337891 -3.76632812 48.80035156 -3.796875 49.95117188 C-3.80203125 51.14291016 -3.8071875 52.33464844 -3.8125 53.5625 C-3.83183594 54.77873047 -3.85117187 55.99496094 -3.87109375 57.24804688 C-3.90735026 59.69665619 -3.93431124 62.14542201 -3.95166016 64.59423828 C-3.99348434 67.54094203 -4.11427476 70.46150293 -4.29296875 73.40234375 C-4.73785082 82.05174091 -3.99000806 88.01344369 1.37109375 95.2265625 C1.90863281 95.81179687 2.44617188 96.39703125 3 97 C3.33 97 3.66 97 4 97 C4.13629608 77.29997408 3.82659154 57.6843102 3 38 C0.57311082 38 -1.15301373 39.6247084 -3 41 Z M-28 39 C-31.52510473 64.64372005 -34.83818994 90.3090224 -38 116 C-36.35 116.99 -34.7 117.98 -33 119 C-31.68445979 117.71142987 -30.37265903 116.41904109 -29.0625 115.125 C-27.96615234 114.04605469 -27.96615234 114.04605469 -26.84765625 112.9453125 C-23.82173728 109.75946124 -23.71380745 107.27662667 -23.24389648 102.97729492 C-23.10382675 101.71225632 -22.96375702 100.44721771 -22.81944275 99.1438446 C-22.66983161 97.75607005 -22.52038603 96.36827764 -22.37109375 94.98046875 C-22.2158406 93.56038117 -22.06032449 92.14032231 -21.90455627 90.72029114 C-21.57854338 87.74046351 -21.25520986 84.76036093 -20.93383789 81.7800293 C-20.52247256 77.96642716 -20.10532179 74.15348584 -19.68624783 70.34072399 C-19.36420473 67.40609271 -19.04484903 64.47117388 -18.72633553 61.53615761 C-18.57356699 60.13071058 -18.42006424 58.72534315 -18.2658062 57.32005882 C-18.0501128 55.35062505 -17.83833049 53.38076414 -17.62670898 51.41088867 C-17.50537094 50.29107101 -17.3840329 49.17125336 -17.25901794 48.01750183 C-17.02782963 45.32420904 -16.94960534 42.70095332 -17 40 C-19.97851562 40.04882812 -19.97851562 40.04882812 -22.95703125 40.09765625 C-25 40 -25 40 -28 39 Z M21 39 C22.32 64.41 23.64 89.82 25 116 C26.32 116 27.64 116 29 116 C29.99 115.01 29.99 115.01 31 114 C33.61580479 114.3269756 35.64078137 114.82039068 38 116 C37.51164621 99.38604531 36.83794023 82.78726372 36 66.1875 C35.95820618 65.3402536 35.91641235 64.4930072 35.87335205 63.62008667 C35.75221797 61.17753187 35.62680887 58.73523482 35.5 56.29296875 C35.46458099 55.57312805 35.42916199 54.85328735 35.39266968 54.1116333 C35.13909548 49.36977503 34.63365566 44.70654341 34 40 C32.96939453 40.01740234 32.96939453 40.01740234 31.91796875 40.03515625 C31.01691406 40.04417969 30.11585938 40.05320313 29.1875 40.0625 C27.84751953 40.07990234 27.84751953 40.07990234 26.48046875 40.09765625 C24 40 24 40 21 39 Z M-44 40 C-45.0532519 43.1597557 -45.35725872 45.88087667 -45.66430664 49.19628906 C-45.78435562 50.4748175 -45.9044046 51.75334595 -46.02809143 53.07061768 C-46.15561701 54.4689379 -46.28296759 55.86727409 -46.41015625 57.265625 C-46.54302774 58.70190439 -46.67612327 60.13816307 -46.80943298 61.57440186 C-47.08823732 64.58699154 -47.36448523 67.59980182 -47.63891602 70.61279297 C-47.98958823 74.46086035 -48.34628993 78.30833953 -48.7049036 82.15567398 C-48.98093327 85.12384676 -49.25385349 88.09229925 -49.52584648 91.06084442 C-49.65609458 92.4785991 -49.78726189 93.89626967 -49.91938972 95.3138504 C-50.10441576 97.30432304 -50.28483506 99.29522225 -50.46508789 101.28613281 C-50.62044762 102.9813205 -50.62044762 102.9813205 -50.77894592 104.71075439 C-51.01009871 108.15026706 -51.03740248 111.55378217 -51 115 C-50.0925 114.319375 -49.185 113.63875 -48.25 112.9375 C-45 111 -45 111 -42.796875 111.37890625 C-42.20390625 111.58386719 -41.6109375 111.78882813 -41 112 C-39.46903407 104.06512773 -38.28866572 96.12143271 -37.2734375 88.10546875 C-37.12089508 86.91448074 -36.96835266 85.72349274 -36.81118774 84.49641418 C-36.49211564 81.99820439 -36.17453966 79.49980309 -35.85839844 77.0012207 C-35.3741127 73.1804997 -34.88264006 69.36074807 -34.390625 65.54101562 C-34.08029603 63.10422179 -33.77038554 60.66737461 -33.4609375 58.23046875 C-33.31409515 57.0928862 -33.16725281 55.95530365 -33.01596069 54.7832489 C-32.88227081 53.71806534 -32.74858093 52.65288177 -32.61083984 51.55541992 C-32.49251801 50.62485275 -32.37419617 49.69428558 -32.25228882 48.73551941 C-31.98476188 45.83477596 -32 42.91305393 -32 40 C-35.96 40 -39.92 40 -44 40 Z M17 39 C16.67 39.33 16.34 39.66 16 40 C14.31391034 40.07205511 12.62499341 40.08386068 10.9375 40.0625 C10.01839844 40.05347656 9.09929687 40.04445312 8.15234375 40.03515625 C7.44207031 40.02355469 6.73179687 40.01195312 6 40 C5.95991608 48.10457652 5.99100652 56.20465075 6.10874462 64.308321 C6.16129702 68.07311833 6.19087443 71.83495879 6.16479492 75.60009766 C5.33563015 94.58679765 5.33563015 94.58679765 12.7278595 111.25045776 C16.8357376 115.71655346 16.8357376 115.71655346 22 118 C20.81508427 91.65753269 19.52445969 65.32511492 18 39 C17.67 39 17.34 39 17 39 Z M-6 90 C-7.04110525 91.54880473 -8.07634665 93.10184208 -9.08325195 94.6730957 C-20.7210647 112.82157292 -33.60535642 125.41377682 -53 135 C-53 135.99 -53 136.98 -53 138 C-35.04630607 132.59487883 -18.21722617 118.49063322 -8 103 C-4.86391655 104.36145308 -3.0854655 105.79511789 -0.9375 108.4375 C9.714683 120.89132072 21.74128387 131.54124915 37 138 C37.66 138 38.32 138 39 138 C37.49648213 133.77492447 34.46799178 132.08175827 30.875 129.75 C16.08329804 119.58191401 5.21939962 106.66101798 -4.03881836 91.3984375 C-4.3560083 90.93695313 -4.67319824 90.47546875 -5 90 C-5.33 90 -5.66 90 -6 90 Z M-8 108 C-9.28535171 109.49514474 -10.50373806 111.04820119 -11.6875 112.625 C-15.12467766 117.04871677 -18.6165894 120.52979994 -23 124 C-21.25309934 128.20844249 -19.2398303 129.34076624 -15.20703125 131.171875 C-9.01270717 133.49611695 -4.30909942 133.28523046 1.87890625 130.96875 C4.86241353 129.60611684 7.36975578 127.95582262 10 126 C6.3527812 121.64112875 2.60135356 117.55093828 -1.4609375 113.578125 C-3 112 -3 112 -4.8125 109.5625 C-5.204375 109.046875 -5.59625 108.53125 -6 108 C-6.66 108 -7.32 108 -8 108 Z M-45 115 C-45 118.99904969 -43.27413033 120.80200422 -41 124 C-39.68 123.01 -38.36 122.02 -37 121 C-38.14324839 119.9970458 -39.28967191 118.99770973 -40.4375 118 C-41.07558594 117.443125 -41.71367187 116.88625 -42.37109375 116.3125 C-43.78113179 114.89542935 -43.78113179 114.89542935 -45 115 Z M-50.55078125 119.20703125 C-52.41563184 121.51421837 -52.31464621 122.76313725 -52.1875 125.6875 C-52.16042969 126.49574219 -52.13335937 127.30398438 -52.10546875 128.13671875 C-52.07066406 128.75160156 -52.03585937 129.36648438 -52 130 C-50.02 129.34 -48.04 128.68 -46 128 C-46 127.67 -46 127.34 -46 127 C-47.65 127 -49.3 127 -51 127 C-50.01 124.03 -49.02 121.06 -48 118 C-49.19600336 117.8976307 -49.19600336 117.8976307 -50.55078125 119.20703125 Z M31 118 C29.61767557 119.62626404 28.28062485 121.2925002 27 123 C27.99 123 28.98 123 30 123 C31.71711243 120.55503957 31.71711243 120.55503957 33 118 C32.34 118 31.68 118 31 118 Z M35 119 C35.66 120.65 36.32 122.3 37 124 C37.33 122.68 37.66 121.36 38 120 C37.01 119.67 36.02 119.34 35 119 Z M-46 121 C-46.33 121.99 -46.66 122.98 -47 124 C-46.34 124 -45.68 124 -45 124 C-45.33 123.01 -45.66 122.02 -46 121 Z M33 122 C33 122.99 33 123.98 33 125 C33.66 124.67 34.32 124.34 35 124 C34.34 123.34 33.68 122.68 33 122 Z M-28 128 C-28.58265625 128.43570313 -29.1653125 128.87140625 -29.765625 129.3203125 C-36.19201214 133.98853712 -42.81506022 137.62974474 -50 141 C-48.76444277 144.76511021 -46.6303004 146.05286649 -43.20117188 147.84033203 C-42.55728516 148.16114746 -41.91339844 148.48196289 -41.25 148.8125 C-40.58548828 149.15651855 -39.92097656 149.50053711 -39.23632812 149.85498047 C-35.89526202 151.57529762 -32.52749136 153.23524842 -29.140625 154.86328125 C-19.37433259 159.57131397 -12.98457567 163.93246111 -7 173 C-6.319375 172.319375 -5.63875 171.63875 -4.9375 170.9375 C-4.47601563 170.48246094 -4.01453125 170.02742188 -3.5390625 169.55859375 C-2.48666706 168.49284304 -1.46135894 167.39983902 -0.4609375 166.28515625 C5.77634442 159.53056422 13.10926812 156.66719392 21.625 153.5625 C26.98345491 151.548329 32.08137915 149.30387852 36 145 C36.37067955 143.67656298 36.70867959 142.3431386 37 141 C35.38931641 140.22076172 35.38931641 140.22076172 33.74609375 139.42578125 C32.30973435 138.7216835 30.8735455 138.01723775 29.4375 137.3125 C28.73302734 136.97283203 28.02855469 136.63316406 27.30273438 136.28320312 C22.50137317 133.91571165 18.28316367 131.21377984 14 128 C13.25234375 128.49371094 12.5046875 128.98742187 11.734375 129.49609375 C10.74953125 130.13675781 9.7646875 130.77742187 8.75 131.4375 C7.77546875 132.07558594 6.8009375 132.71367187 5.796875 133.37109375 C0.18236553 136.64099661 -5.62347059 136.61653861 -12 136 C-17.94260196 134.35919574 -23.05850729 131.64109989 -28 128 Z M35 128 C36.32 128.99 37.64 129.98 39 131 C39 130.01 39 129.02 39 128 C37.68 128 36.36 128 35 128 Z " fill="#AF251C" transform="translate(356,150)"/>
<path d="M0 0 C13.79132713 9.96846803 21.13179545 30.86921759 24 47 C24.226875 48.155 24.45375 49.31 24.6875 50.5 C26.16539552 67.05242981 24.10866081 83.88924013 17 99 C16.50757813 100.06476563 16.01515625 101.12953125 15.5078125 102.2265625 C4.70945002 123.87495426 -14.44479654 137.9229271 -35.25 149.1875 C-35.97711182 149.58646484 -36.70422363 149.98542969 -37.45336914 150.39648438 C-39.26125647 151.34676492 -41.12785754 152.18356119 -43 153 C-43.99 152.67 -44.98 152.34 -46 152 C-44.88121617 150.82737096 -43.75476949 149.66204862 -42.625 148.5 C-41.99851562 147.8503125 -41.37203125 147.200625 -40.7265625 146.53125 C-39 145 -39 145 -37 145 C-36.73832031 144.40574219 -36.47664063 143.81148437 -36.20703125 143.19921875 C-34.92652038 140.86611966 -33.65621906 139.58729812 -31.6875 137.8125 C-7.72291153 114.32633344 5.46067863 84.26672574 6.25 50.875 C6.29328638 36.07646752 4.03382271 20.97022286 0.55078125 6.609375 C0 4 0 4 0 0 Z " fill="#AF251C" transform="translate(465,221)"/>
<path d="M0 0 C0.66 0 1.32 0 2 0 C1.88027832 0.65266846 1.76055664 1.30533691 1.63720703 1.9777832 C1.08781733 4.98453504 0.54354224 7.99218575 0 11 C-0.17821289 11.97630371 -0.35642578 12.95260742 -0.54003906 13.95849609 C-6.8426198 49.1333965 -5.94903296 83.56342717 14.42089844 114.13232422 C20.63319102 123.01963902 27.58106902 131.10450575 35 139 C39.09773528 143.58594202 43.08644963 148.25630258 47 153 C21.77973533 145.31089492 -1.84174077 124.72651021 -14.17578125 101.78125 C-24.88537274 80.55122344 -25.76636554 55.51645006 -18.81640625 33.07421875 C-14.8397896 21.11958782 -8.41118873 9.44002512 0 0 Z " fill="#AF251C" transform="translate(230,221)"/>
<path d="M0 0 C0.99 0.33 1.98 0.66 3 1 C2.823479 1.54938232 2.64695801 2.09876465 2.46508789 2.66479492 C1.66141803 5.1714732 0.86192478 7.67946482 0.0625 10.1875 C-0.35418945 11.48397461 -0.35418945 11.48397461 -0.77929688 12.80664062 C-1.18051758 14.06831055 -1.18051758 14.06831055 -1.58984375 15.35546875 C-1.95903931 16.51018677 -1.95903931 16.51018677 -2.33569336 17.68823242 C-3.62558477 22.1770166 -4.10197336 26.3560752 -4.23950195 31.02783203 C-4.68798584 45.06432776 -7.22187832 57.94963678 -14.85546875 69.90625 C-22.62726491 82.15448409 -27.76742734 94.44162275 -28.65625 108.99609375 C-28.7696875 109.65738281 -28.883125 110.31867188 -29 111 C-29.99 111.495 -29.99 111.495 -31 112 C-31.64995297 110.58521865 -32.29478722 109.16808513 -32.9375 107.75 C-33.29714844 106.96109375 -33.65679687 106.1721875 -34.02734375 105.359375 C-38.58463288 94.30474595 -36.26389553 80.84401137 -32 70 C-30.04874082 65.99138882 -27.82569019 62.14964648 -25.58251953 58.29907227 C-21.12781943 50.63875465 -19.22787214 43.96150017 -18.0625 35.1875 C-16.46734091 23.24325996 -13.34795753 10.91514224 -4.25 2.4375 C-2 1 -2 1 0 0 Z " fill="#AF251C" transform="translate(389,324)"/>
<path d="M0 0 C20.94772448 14.9208652 35.89484996 33.94516585 40.4921875 59.6796875 C42.53262766 74.95775359 43.85225283 99.72162075 35 113 C27.73275675 97.8335793 26.44062036 81.49988101 24.77050781 64.97998047 C23.5269218 52.80910388 21.98106195 41.06954041 16.5625 29.9375 C16.23121094 29.24068115 15.89992188 28.5438623 15.55859375 27.82592773 C12.16793519 20.92950508 8.07665358 14.48526407 3.86157227 8.06811523 C3.36069092 7.30442627 2.85980957 6.5407373 2.34375 5.75390625 C1.66602539 4.73792358 1.66602539 4.73792358 0.97460938 3.70141602 C0 2 0 2 0 0 Z " fill="#AF251C" transform="translate(294,306)"/>
<path d="M0 0 C3 1 3 1 4.3515625 3.109375 C4.98191406 4.41648437 4.98191406 4.41648437 5.625 5.75 C6.26308594 7.04164063 6.26308594 7.04164063 6.9140625 8.359375 C11.15830929 18.67991755 8.98890886 28.9560708 5 39 C1.31257872 47.10179133 -3.82042001 53.28749585 -9.93457031 59.61962891 C-14.51131599 64.37179452 -18.59687409 69.38480434 -22.57324219 74.64599609 C-25.81356053 78.90678026 -25.81356053 78.90678026 -28 80 C-29.01812987 63.9738817 -24.19116403 51.54652942 -15.31103516 38.60546875 C-6.99104291 26.43380039 -2.3279943 14.58059586 0 0 Z " fill="#AF251C" transform="translate(416,290)"/>
<path d="M0 0 C0.33 0 0.66 0 1 0 C1.13535156 0.72703125 1.27070313 1.4540625 1.41015625 2.203125 C4.02732638 14.42703339 9.82923177 23.34156044 18.44335938 32.16796875 C22 35.8191215 22 35.8191215 22 38 C22.59167969 38.27328125 23.18335938 38.5465625 23.79296875 38.828125 C33.20739227 43.82693395 37.58194876 54.29332958 41.03515625 63.87109375 C43.69841488 73.30625624 44.18253502 83.26735809 45 93 C44.34 93 43.68 93 43 93 C42.70867187 92.35562988 42.41734375 91.71125977 42.1171875 91.04736328 C34.81347423 74.40697318 34.81347423 74.40697318 24 60 C11.21948801 46.31112104 -2.94728063 30.77766559 -3.25 11 C-3.27578125 9.989375 -3.3015625 8.97875 -3.328125 7.9375 C-2.95356393 4.58428662 -1.97188563 2.70885299 0 0 Z " fill="#AF251C" transform="translate(264,279)"/>
<path d="M0 0 C10.18051475 4.42230505 16.85319907 15.3043876 20.8125 25.25 C26.11045439 41.98038228 20.55889028 57.27880943 14.51318359 72.95996094 C11.78601649 80.19178389 10.19758538 87.36967032 9 95 C6 94 6 94 4.375 91.4375 C-1.19928583 77.50178541 4.7373405 60.93991056 7.96704102 46.98730469 C11.5787462 30.95262715 9.09692273 19.20674793 1.42578125 4.8359375 C0 2 0 2 0 0 Z " fill="#AF251C" transform="translate(336,325)"/>
<path d="M0 0 C1.89325492 3.88615483 2.1860696 6.53006259 1.0625 10.625 C-0.39875969 14.37619912 -2.04126047 16.66388165 -5.84765625 18.41015625 C-11.81425267 20.04528521 -17.78659657 19.89546892 -23.4375 17.3125 C-26.76547659 15.3540611 -29.14567111 13.4667888 -31 10 C-30.93977486 6.50694211 -30.63658168 4.09633511 -28.875 1.0625 C-25.8874073 -0.6304692 -23.35873766 -0.29462611 -20 0 C-18.66666667 0.66666667 -17.33333333 1.33333333 -16 2 C-13.20393144 1.71322374 -11.11465092 1.05291581 -8.5625 -0.125 C-5.3666954 -1.21625035 -3.24721836 -0.75516706 0 0 Z M-25 5 C-25.33 5.99 -25.66 6.98 -26 8 C-22.16240072 12.2639992 -19.22251567 13.8015611 -13.5 14.3125 C-9.68797913 13.97214099 -7.86652211 13.52928421 -5 11 C-4.10792821 7.9042893 -4.10792821 7.9042893 -4 5 C-7.60992379 5.65585189 -7.60992379 5.65585189 -11 7 C-15.34716441 7.24150913 -18.21977057 7.1601311 -22 5 C-22.99 5 -23.98 5 -25 5 Z " fill="#AF251C" transform="translate(361,513)"/>
<path d="M0 0 C2.5084483 3.76267245 2.14270626 5.46058892 1.5390625 9.77734375 C0.53828439 13.90374044 -1.58616324 16.12674788 -5.125 18.3125 C-13.11312582 20.222704 -19.9700236 19.28620924 -27 15 C-29.84757402 12.49758646 -29.96166824 11.30665405 -30.4375 7.5 C-30 4 -30 4 -28.375 1.5625 C-25.31889507 -0.44809535 -23.59974487 -0.44996811 -20 0 C-19.01 0.5259375 -19.01 0.5259375 -18 1.0625 C-15.06605346 2.43778744 -13.0857347 1.77143367 -10 1 C-9.34 0.62875 -8.68 0.2575 -8 -0.125 C-5.04655457 -1.41713237 -3.04412532 -0.86029629 0 0 Z M-24 5 C-24.33 6.32 -24.66 7.64 -25 9 C-19.71604398 13.42709829 -15.88370693 14.54235267 -9 14 C-6.19441418 13.11402553 -5.33934628 12.52598673 -3.75 10.0625 C-2.82912847 7.89587516 -2.82912847 7.89587516 -3 5 C-6.60992379 5.65585189 -6.60992379 5.65585189 -10 7 C-15.2372694 7.26186347 -19.06215348 6.97513861 -24 5 Z " fill="#AF251C" transform="translate(324,513)"/>
<path d="M0 0 C2 2 2 2 2.3125 5.8125 C2.19392674 9.66961837 1.52643359 11.96827969 -1 15 C-5.47171713 19.13633834 -9.31451445 19.61452059 -15.17578125 19.390625 C-20.52374217 18.65093469 -25.00419625 16.75388814 -29.0625 13.1875 C-30.45984677 9.9270242 -30.43775198 7.50201582 -30 4 C-28.375 1.5625 -28.375 1.5625 -26 0 C-22.82921977 -0.39634753 -20.84315383 -0.44792547 -18 1.0625 C-15.06143982 2.43995008 -13.09995769 1.75917331 -10 1 C-9.154375 0.62875 -8.30875 0.2575 -7.4375 -0.125 C-4.49188398 -1.18240062 -2.95012395 -0.95679696 0 0 Z M-6.625 5.5 C-10.44251489 7.19667328 -12.86509639 7.38286145 -17 7 C-18.34090759 6.34870203 -19.67592331 5.68486725 -21 5 C-23.19747131 5.29805007 -23.19747131 5.29805007 -25 6 C-24.62118922 8.74637817 -24.22167713 9.80049058 -22.125 11.6875 C-17.93668323 14.27440153 -13.79962691 14.49586789 -9 14 C-5.99844249 13.13353917 -5.99844249 13.13353917 -4 11 C-3.10407917 7.40080577 -3.10407917 7.40080577 -3 4 C-4.35918392 3.91731018 -4.35918392 3.91731018 -6.625 5.5 Z " fill="#AF251C" transform="translate(397,513)"/>
<path d="M0 0 C2.22203841 1.53997386 3.49341748 2.64502456 4.62890625 5.12890625 C5.12288834 9.08076295 5.23746315 11.2160709 3.00390625 14.56640625 C0.02630825 16.5253523 -1.87464412 16.44676531 -5.37109375 16.12890625 C-6.69109375 13.15890625 -8.01109375 10.18890625 -9.37109375 7.12890625 C-10.69109375 7.12890625 -12.01109375 7.12890625 -13.37109375 7.12890625 C-13.70109375 9.43890625 -14.03109375 11.74890625 -14.37109375 14.12890625 C-17.57587655 15.47044323 -19.61001288 16.28820225 -23.05859375 15.56640625 C-25.99527005 13.74090476 -27.06164908 12.329771 -28.37109375 9.12890625 C-28.37109375 5.2223927 -27.92093658 3.69445887 -25.18359375 0.87890625 C-17.22348435 -4.07405071 -8.19819674 -4.75329791 0 0 Z M-22.37109375 4.12890625 C-23.77576328 6.1798377 -23.77576328 6.1798377 -24.37109375 8.12890625 C-23.07641698 10.18881103 -23.07641698 10.18881103 -21.37109375 12.12890625 C-20.38109375 12.12890625 -19.39109375 12.12890625 -18.37109375 12.12890625 C-18.24992187 11.56300781 -18.12875 10.99710937 -18.00390625 10.4140625 C-17.75253906 9.31384766 -17.75253906 9.31384766 -17.49609375 8.19140625 C-17.33367187 7.46050781 -17.17125 6.72960937 -17.00390625 5.9765625 C-16.37109375 4.12890625 -16.37109375 4.12890625 -14.37109375 3.12890625 C-9.07255513 2.67796679 -9.07255513 2.67796679 -6.62109375 4.25390625 C-4.96626221 6.73615357 -4.19527967 9.27595499 -3.37109375 12.12890625 C-1.38617733 11.86214421 -1.38617733 11.86214421 0.62890625 11.12890625 C1.88110064 8.30777103 1.88110064 8.30777103 1.06640625 6.12890625 C-1.06884903 3.1581163 -2.91770599 2.36225902 -6.37109375 1.12890625 C-12.31240213 0.41517765 -17.32714958 0.59814533 -22.37109375 4.12890625 Z " fill="#AF251C" transform="translate(359.37109375,292.87109375)"/>
<path d="M0 0 C5.94 0 11.88 0 18 0 C17 5 17 5 15.1875 7.125 C10.37533362 9.95568611 5.44409609 10.80349536 0 12 C0 8.04 0 4.08 0 0 Z " fill="#AF251C" transform="translate(365,290)"/>
<path d="M0 0 C5.61 0 11.22 0 17 0 C17 3.96 17 7.92 17 12 C10.02066715 10.73103039 5.15249083 9.15249083 0 4 C0 2.68 0 1.36 0 0 Z " fill="#AF251C" transform="translate(313,290)"/>
<path d="M0 0 C3.93313346 1.31104449 5.36757006 3.82495822 7.6875 7.0625 C8.10322266 7.63033203 8.51894531 8.19816406 8.94726562 8.78320312 C9.97140082 10.18403173 10.98657535 11.59140348 12 13 C11.01 13.495 11.01 13.495 10 14 C8.989375 13.29875 7.97875 12.5975 6.9375 11.875 C4.53538917 10.40257642 3.49870389 9.9219201 0.6796875 10.36328125 C-1.5936216 11.15481296 -3.78402296 12.06199863 -6 13 C-7.32678062 13.35852764 -8.65871637 13.7002549 -10 14 C-8.43632643 10.47761953 -6.30504111 7.72876006 -3.875 4.75 C-3.15054687 3.85796875 -2.42609375 2.9659375 -1.6796875 2.046875 C-0.84824219 1.03367187 -0.84824219 1.03367187 0 0 Z " fill="#AF251C" transform="translate(349,263)"/>
</svg>
